<svg xmlns="http://www.w3.org/2000/svg" height="48" width="48"><path d="M28.55 22.45H41.4v-8.8H28.55Zm6.4-2.05-4.9-3.55v-1.7l4.9 3.55 4.95-3.55v1.7ZM5.3 38.4q-1.1 0-1.9-.8-.8-.8-.8-1.9V12.25q0-1.05.8-1.875t1.9-.825h37.4q1.1 0 1.9.825.8.825.8 1.875V35.7q0 1.1-.8 1.9-.8.8-1.9.8Zm23-1.1h14.4q.6 0 1.1-.5.5-.5.5-1.1V12.25q0-.6-.5-1.1-.5-.5-1.1-.5H5.3q-.6 0-1.1.5-.5.5-.5 1.1V35.7q0 .6.5 1.1.5.5 1.1.5h1.6Q9 35 11.675 33.525q2.675-1.475 5.875-1.475 3.1 0 5.825 1.475T28.3 37.3Zm-10.75-8.7q1.95 0 3.35-1.375 1.4-1.375 1.4-3.325 0-1.95-1.4-3.325-1.4-1.375-3.35-1.375-2 0-3.325 1.375Q12.9 21.95 12.9 23.85q0 2 1.325 3.375T17.55 28.6Zm-9 8.7h18q-1.7-1.95-4.075-3.05-2.375-1.1-4.925-1.1-2.6 0-4.95 1.075T8.55 37.3Zm9-9.8q-1.45 0-2.5-1.05T14 23.9q0-1.5 1.025-2.55 1.025-1.05 2.525-1.05t2.575 1.05Q21.2 22.4 21.2 23.9q0 1.45-1.075 2.525T17.55 27.5ZM24 23.95Z"/></svg>